<svg version="1.2" xmlns="http://www.w3.org/2000/svg" viewBox="0 0 3710 3710" width="500" height="500">
	<title>Wavy_Tsp-02_Single-01-ai</title>
	<defs>
		<linearGradient id="g1" x2="1" gradientUnits="userSpaceOnUse" gradientTransform="matrix(-422.409,0,0,-1041.109,2641.09,1039.064)">
			<stop offset=".494" stop-color="#ebeff2"/>
			<stop offset="1" stop-color="#ffffff"/>
		</linearGradient>
		<linearGradient id="g2" x2="1" gradientUnits="userSpaceOnUse" gradientTransform="matrix(838.089,0,0,1091.614,1692.578,691.536)">
			<stop offset="0" stop-color="#ffc444"/>
			<stop offset=".996" stop-color="#f36f56"/>
		</linearGradient>
		<clipPath clipPathUnits="userSpaceOnUse" id="cp1">
			<path d="m1692.58 1783.15c63.9-43.22 150.76-116.13 203.12-230.52 68.65-150.01 17.63-239.56 67.42-504.19 31.48-167.32 55.13-283.78 149.9-332.91 74.27-38.49 183.32-31.03 241.26 24.97 48.17 46.56 66.64 132.14 67 191.17 0.29 48.11-11.43 81.13 11.62 110.14 23.56 29.65 55.65 20.15 78.47 42.97 46.27 46.28-4.15 166.94-12.3 186.44-90.66 216.91-322.97 335.77-424.93 386.4-84.31 41.86-212.86 95.04-381.56 125.53z"/>
		</clipPath>
		<linearGradient id="g3" x2="1" gradientUnits="userSpaceOnUse" gradientTransform="matrix(-297.771,799.281,-517.289,-192.715,2943.778,1147.713)">
			<stop offset="0" stop-color="#ff9085"/>
			<stop offset="1" stop-color="#fb6fbb"/>
		</linearGradient>
		<clipPath clipPathUnits="userSpaceOnUse" id="cp2">
			<path d="m1888.05 1840.14c119.73 22.38 275.45 33.81 433.74-6.05 40.39-10.18 289.93-73.03 281.59-183.03-2.93-38.75-35.39-50.63-40.22-102.36-5.73-61.31 36.17-83.88 74.67-152.07 22.98-40.69 90.21-159.77 26.74-243.82-37.92-50.23-120.8-85.68-189.38-82.16-100.58 5.17-150.67 93.15-232.86 243.5-72.86 133.27-66.96 170.26-121.09 265.32-40.18 70.54-108.97 165.24-233.19 260.67z"/>
		</clipPath>
		<linearGradient id="g4" x2="1" gradientUnits="userSpaceOnUse" gradientTransform="matrix(-1519.644,-2627.713,1050.997,-607.806,826.521,3821.9)">
			<stop offset="0" stop-color="#ffc444"/>
			<stop offset=".314" stop-color="#fba94a"/>
			<stop offset=".996" stop-color="#f36f56"/>
		</linearGradient>
		<clipPath clipPathUnits="userSpaceOnUse" id="cp3">
			<path d="m1263.22 2743.46c2.12 38.13-0.42 69.7-0.09 107.04 145.35-68.89 298.09-108.66 445.57-178.24-164.83-130.48-286.35-167.97-315.51-409.98-13.69-113.57-7.39-341.42-88.83-424.66-92.79-94.85-162.54-33.12-181.93-143.78-30.31-172.95-175-310.4-364.99-156.77-187.51 151.63 54.22 729.03 239.82 838.37 139.28 124.68 254.91 168.97 265.96 368.02z"/>
		</clipPath>
		<linearGradient id="g5" x2="1" gradientUnits="userSpaceOnUse" gradientTransform="matrix(860.687,1416.912,-810.974,492.616,1593.17,1564.191)">
			<stop offset=".004" stop-color="#e38ddd"/>
			<stop offset="1" stop-color="#9571f6"/>
		</linearGradient>
		<clipPath clipPathUnits="userSpaceOnUse" id="cp4">
			<path d="m1123.41 2345.14c50.94 189.13 158.93 140.92 299.47 85.39-13.26 181.94-19.47 359.6-25.15 539.91-94.62 35.77-163.06 59.63-224.18-46.89-69.13-120.46-105.03-192.27-256.52-213.41-151.49-21.15-271.79-123.89-230.92-271.25 43-155.07-100.67-344.27 19.45-462.82 209.3-206.58 364.81 172.12 417.85 369.07z"/>
		</clipPath>
		<linearGradient id="g6" x2="1" gradientUnits="userSpaceOnUse" gradientTransform="matrix(-1342.909,0,0,-392.597,2977.013,2241.242)">
			<stop offset="0" stop-color="#444b8c"/>
			<stop offset=".996" stop-color="#26264f"/>
		</linearGradient>
		<linearGradient id="g7" x2="1" gradientUnits="userSpaceOnUse" gradientTransform="matrix(-261.09,0,0,-182.244,2251.747,2413.103)">
			<stop offset="0" stop-color="#444b8c"/>
			<stop offset=".996" stop-color="#26264f"/>
		</linearGradient>
		<linearGradient id="g8" x2="1" gradientUnits="userSpaceOnUse" gradientTransform="matrix(-64.701,0,0,-118.521,2918.76,2290.053)">
			<stop offset="0" stop-color="#311944"/>
			<stop offset="1" stop-color="#6b3976"/>
		</linearGradient>
		<linearGradient id="g9" x2="1" gradientUnits="userSpaceOnUse" gradientTransform="matrix(-64.528,0,0,-117.46,2932.284,2290.01)">
			<stop offset="0" stop-color="#311944"/>
			<stop offset="1" stop-color="#6b3976"/>
		</linearGradient>
		<linearGradient id="g10" x2="1" gradientUnits="userSpaceOnUse" gradientTransform="matrix(61.966,-8.342,15.946,118.456,2867.2,2392.157)">
			<stop offset=".005" stop-color="#d8dee8"/>
			<stop offset="1" stop-color="#f4f7fa"/>
		</linearGradient>
		<linearGradient id="g11" x2="1" gradientUnits="userSpaceOnUse" gradientTransform="matrix(-71.943,0,0,-130.768,2845.436,2301.997)">
			<stop offset="0" stop-color="#311944"/>
			<stop offset="1" stop-color="#6b3976"/>
		</linearGradient>
		<linearGradient id="g12" x2="1" gradientUnits="userSpaceOnUse" gradientTransform="matrix(-71.731,0,0,-129.562,2860.461,2301.947)">
			<stop offset="0" stop-color="#311944"/>
			<stop offset="1" stop-color="#6b3976"/>
		</linearGradient>
		<linearGradient id="g13" x2="1" gradientUnits="userSpaceOnUse" gradientTransform="matrix(68.768,-9.257,17.583,130.619,2788.142,2414.588)">
			<stop offset=".005" stop-color="#d8dee8"/>
			<stop offset="1" stop-color="#f4f7fa"/>
		</linearGradient>
		<linearGradient id="g14" x2="1" gradientUnits="userSpaceOnUse" gradientTransform="matrix(-79.825,0,0,-143.893,2765.921,2307.769)">
			<stop offset="0" stop-color="#311944"/>
			<stop offset="1" stop-color="#6b3976"/>
		</linearGradient>
		<linearGradient id="g15" x2="1" gradientUnits="userSpaceOnUse" gradientTransform="matrix(-79.565,0,0,-142.538,2782.577,2307.713)">
			<stop offset="0" stop-color="#311944"/>
			<stop offset="1" stop-color="#6b3976"/>
		</linearGradient>
		<linearGradient id="g16" x2="1" gradientUnits="userSpaceOnUse" gradientTransform="matrix(76.144,-10.25,19.34,143.669,2702.394,2431.602)">
			<stop offset=".005" stop-color="#d8dee8"/>
			<stop offset="1" stop-color="#f4f7fa"/>
		</linearGradient>
		<linearGradient id="g17" x2="1" gradientUnits="userSpaceOnUse" gradientTransform="matrix(-109.896,0,0,-190.358,2378.853,2374.399)">
			<stop offset="0" stop-color="#311944"/>
			<stop offset="1" stop-color="#6b3976"/>
		</linearGradient>
		<linearGradient id="g18" x2="1" gradientUnits="userSpaceOnUse" gradientTransform="matrix(-109.418,0,0,-188.337,2401.699,2374.311)">
			<stop offset="0" stop-color="#311944"/>
			<stop offset="1" stop-color="#6b3976"/>
		</linearGradient>
		<linearGradient id="g19" x2="1" gradientUnits="userSpaceOnUse" gradientTransform="matrix(103.854,-13.98,25.512,189.518,2291.635,2537.79)">
			<stop offset=".005" stop-color="#d8dee8"/>
			<stop offset="1" stop-color="#f4f7fa"/>
		</linearGradient>
		<linearGradient id="g20" x2="1" gradientUnits="userSpaceOnUse" gradientTransform="matrix(-150.361,0,0,-251.221,2021.777,2417.278)">
			<stop offset="0" stop-color="#311944"/>
			<stop offset="1" stop-color="#6b3976"/>
		</linearGradient>
		<linearGradient id="g21" x2="1" gradientUnits="userSpaceOnUse" gradientTransform="matrix(-149.508,0,0,-248.273,2052.903,2417.149)">
			<stop offset="0" stop-color="#311944"/>
			<stop offset="1" stop-color="#6b3976"/>
		</linearGradient>
		<linearGradient id="g22" x2="1" gradientUnits="userSpaceOnUse" gradientTransform="matrix(140.875,-18.964,33.579,249.448,1902.799,2632.451)">
			<stop offset=".005" stop-color="#d8dee8"/>
			<stop offset="1" stop-color="#f4f7fa"/>
		</linearGradient>
		<linearGradient id="g23" x2="1" gradientUnits="userSpaceOnUse" gradientTransform="matrix(1463.107,950.734,-855.974,1317.28,2031.51,2245.738)">
			<stop offset="0" stop-color="#aa80f9"/>
			<stop offset=".996" stop-color="#6165d7"/>
		</linearGradient>
		<linearGradient id="g24" x2="1" gradientUnits="userSpaceOnUse" gradientTransform="matrix(1247.868,793.517,-864.284,1359.155,871.406,2178.812)">
			<stop offset="0" stop-color="#aa80f9"/>
			<stop offset=".996" stop-color="#6165d7"/>
		</linearGradient>
		<linearGradient id="g25" x2="1" gradientUnits="userSpaceOnUse" gradientTransform="matrix(-861.431,0,0,-669.076,3049.035,1705.188)">
			<stop offset="0" stop-color="#aa80f9"/>
			<stop offset=".996" stop-color="#6165d7"/>
		</linearGradient>
		<linearGradient id="g26" x2="1" gradientUnits="userSpaceOnUse" gradientTransform="matrix(-417.671,0,0,-643.599,2094.907,1781.954)">
			<stop offset=".005" stop-color="#d8dee8"/>
			<stop offset="1" stop-color="#f4f7fa"/>
		</linearGradient>
		<linearGradient id="g27" x2="1" gradientUnits="userSpaceOnUse" gradientTransform="matrix(-390.352,0,0,-294.066,1627.734,2277.11)">
			<stop offset="0" stop-color="#444b8c"/>
			<stop offset=".996" stop-color="#26264f"/>
		</linearGradient>
		<linearGradient id="g28" x2="1" gradientUnits="userSpaceOnUse" gradientTransform="matrix(215.767,751.708,-1136.557,326.233,1653.069,2410.397)">
			<stop offset="0" stop-color="#ff9085"/>
			<stop offset="1" stop-color="#fb6fbb"/>
		</linearGradient>
		<linearGradient id="g29" x2="1" gradientUnits="userSpaceOnUse" gradientTransform="matrix(178.58,622.15,-345.83,99.266,1169.897,2564.346)">
			<stop offset="0" stop-color="#ff9085"/>
			<stop offset="1" stop-color="#fb6fbb"/>
		</linearGradient>
		<linearGradient id="g30" x2="1" gradientUnits="userSpaceOnUse" gradientTransform="matrix(-574.046,0,0,-225.76,1777.247,1959.872)">
			<stop offset="0" stop-color="#444b8c"/>
			<stop offset=".996" stop-color="#26264f"/>
		</linearGradient>
		<linearGradient id="g31" x2="1" gradientUnits="userSpaceOnUse" gradientTransform="matrix(218.124,274.384,-168.305,133.796,2202.815,1925.87)">
			<stop offset="0" stop-color="#444b8c"/>
			<stop offset=".996" stop-color="#26264f"/>
		</linearGradient>
		<linearGradient id="g32" x2="1" gradientUnits="userSpaceOnUse" gradientTransform="matrix(-63.424,-99.553,156.218,-99.524,2381.974,1795.887)">
			<stop offset="0" stop-color="#aa80f9"/>
			<stop offset=".996" stop-color="#6165d7"/>
		</linearGradient>
		<linearGradient id="g33" x2="1" gradientUnits="userSpaceOnUse" gradientTransform="matrix(-124.157,156.206,-296.313,-235.519,2314.863,1815.642)">
			<stop offset="0" stop-color="#ffc444"/>
			<stop offset=".996" stop-color="#f36f56"/>
		</linearGradient>
		<linearGradient id="g34" x2="1" gradientUnits="userSpaceOnUse" gradientTransform="matrix(-431.752,-845.951,907.938,-463.388,3523.573,2352.53)">
			<stop offset="0" stop-color="#311944"/>
			<stop offset="1" stop-color="#893976"/>
		</linearGradient>
		<linearGradient id="g35" x2="1" gradientUnits="userSpaceOnUse" gradientTransform="matrix(61.581,40.923,-23.223,34.946,3032.743,3103)">
			<stop offset="0" stop-color="#444b8c"/>
			<stop offset=".996" stop-color="#26264f"/>
		</linearGradient>
		<linearGradient id="g36" x2="1" gradientUnits="userSpaceOnUse" gradientTransform="matrix(-12.119,-85.717,41.092,-5.81,3019.281,3167.451)">
			<stop offset="0" stop-color="#ffc444"/>
			<stop offset=".996" stop-color="#f36f56"/>
		</linearGradient>
		<linearGradient id="g37" x2="1" gradientUnits="userSpaceOnUse" gradientTransform="matrix(64.286,42.721,-34.75,52.292,3033.152,3100.063)">
			<stop offset="0" stop-color="#444b8c"/>
			<stop offset=".996" stop-color="#26264f"/>
		</linearGradient>
		<linearGradient id="g38" x2="1" gradientUnits="userSpaceOnUse" gradientTransform="matrix(55.246,49.141,-27.887,31.352,2683.567,3131.202)">
			<stop offset="0" stop-color="#444b8c"/>
			<stop offset=".996" stop-color="#26264f"/>
		</linearGradient>
		<linearGradient id="g39" x2="1" gradientUnits="userSpaceOnUse" gradientTransform="matrix(0,-86.569,41.502,0,2661.218,3193.131)">
			<stop offset="0" stop-color="#ffc444"/>
			<stop offset=".996" stop-color="#f36f56"/>
		</linearGradient>
		<linearGradient id="g40" x2="1" gradientUnits="userSpaceOnUse" gradientTransform="matrix(347.796,-1404.222,919.194,227.665,3716.135,3512.919)">
			<stop offset="0" stop-color="#444b8c"/>
			<stop offset=".996" stop-color="#26264f"/>
		</linearGradient>
		<linearGradient id="g41" x2="1" gradientUnits="userSpaceOnUse" gradientTransform="matrix(-214.398,-488.352,486.048,-213.386,3531.6,2465.598)">
			<stop offset="0" stop-color="#311944"/>
			<stop offset="1" stop-color="#893976"/>
		</linearGradient>
		<linearGradient id="g42" x2="1" gradientUnits="userSpaceOnUse" gradientTransform="matrix(57.672,51.299,-41.729,46.912,2684.384,3128.351)">
			<stop offset="0" stop-color="#444b8c"/>
			<stop offset=".996" stop-color="#26264f"/>
		</linearGradient>
		<linearGradient id="g43" x2="1" gradientUnits="userSpaceOnUse" gradientTransform="matrix(-35.459,403.005,-440.212,-38.733,2767.356,1577.22)">
			<stop offset="0" stop-color="#ffc444"/>
			<stop offset=".996" stop-color="#f36f56"/>
		</linearGradient>
		<linearGradient id="g44" x2="1" gradientUnits="userSpaceOnUse" gradientTransform="matrix(-33.589,381.749,-243.667,-21.439,2790.037,1586.709)">
			<stop offset="0" stop-color="#ffc444"/>
			<stop offset=".996" stop-color="#f36f56"/>
		</linearGradient>
		<linearGradient id="g45" x2="1" gradientUnits="userSpaceOnUse" gradientTransform="matrix(-265.284,-571.035,956.279,-444.255,2982.83,2329.835)">
			<stop offset="0" stop-color="#311944"/>
			<stop offset="1" stop-color="#893976"/>
		</linearGradient>
	</defs>
	<style>
		.s0 { fill: #f4f7fa } 
		.s1 { fill: #97a6b7 } 
		.s2 { fill: #ffffff } 
		.s3 { opacity: .3;fill: #97a6b7 } 
		.s4 { opacity: .5;mix-blend-mode: multiply;fill: #97a6b7 } 
		.s5 { opacity: .1;mix-blend-mode: multiply;fill: #97a6b7 } 
		.s6 { fill: url(#g1) } 
		.s7 { fill: url(#g2) } 
		.s8 { fill: url(#g3) } 
		.s9 { fill: #d8dee8 } 
		.s10 { mix-blend-mode: multiply;fill: #d8dee8 } 
		.s11 { fill: #707c87 } 
		.s12 { opacity: .3;mix-blend-mode: multiply;fill: #97a6b7 } 
		.s13 { fill: url(#g4) } 
		.s14 { fill: #fcfdfe } 
		.s15 { fill: url(#g5) } 
		.s16 { fill: url(#g6) } 
		.s17 { fill: url(#g7) } 
		.s18 { fill: url(#g8) } 
		.s19 { fill: url(#g9) } 
		.s20 { fill: url(#g10) } 
		.s21 { fill: url(#g11) } 
		.s22 { fill: url(#g12) } 
		.s23 { fill: url(#g13) } 
		.s24 { fill: url(#g14) } 
		.s25 { fill: url(#g15) } 
		.s26 { fill: url(#g16) } 
		.s27 { fill: url(#g17) } 
		.s28 { fill: url(#g18) } 
		.s29 { fill: url(#g19) } 
		.s30 { fill: url(#g20) } 
		.s31 { fill: url(#g21) } 
		.s32 { fill: url(#g22) } 
		.s33 { fill: url(#g23) } 
		.s34 { fill: url(#g24) } 
		.s35 { fill: url(#g25) } 
		.s36 { opacity: .8;mix-blend-mode: multiply;fill: url(#g26) } 
		.s37 { fill: url(#g27) } 
		.s38 { fill: url(#g28) } 
		.s39 { fill: url(#g29) } 
		.s40 { fill: url(#g30) } 
		.s41 { opacity: .3;mix-blend-mode: overlay;fill: #ffffff } 
		.s42 { fill: #808080 } 
		.s43 { fill: url(#g31) } 
		.s44 { fill: url(#g32) } 
		.s45 { fill: url(#g33) } 
		.s46 { fill: url(#g34) } 
		.s47 { fill: url(#g35) } 
		.s48 { fill: url(#g36) } 
		.s49 { fill: url(#g37) } 
		.s50 { fill: url(#g38) } 
		.s51 { fill: url(#g39) } 
		.s52 { fill: url(#g40) } 
		.s53 { fill: url(#g41) } 
		.s54 { fill: url(#g42) } 
		.s55 { fill: url(#g43) } 
		.s56 { fill: #26264f } 
		.s57 { fill: url(#g44) } 
		.s58 { fill: #9b305e } 
		.s59 { fill: url(#g45) } 
	</style>
	<g id="_Artboards_">
	</g>
	<g id="Illustration">
		<g id="&lt;Group&gt;">
			<path id="&lt;Path&gt;" class="s0" d="m1348.6 514.7c211.6-47.2 431.6-69.8 646.7-55.4 190.6 12.8 406.7 47.7 560.2 172.7 73.1 59.5 160.3 166.5 184.2 260.9 0 0.1 125.9 497 377.6 603.5 251.8 106.5 426.6 1923.9-1482.6 1746.4 0 0-1121.4-46.5-1188.9-1386.1-16.3-323.6-7.2-679.4 188.2-950 149.8-207.3 359.5-299.5 600.6-364 37.7-10.1 75.7-19.4 114-28z"/>
			<g id="&lt;Group&gt;">
				<g id="&lt;Group&gt;">
					<path id="&lt;Path&gt;" class="s1" d="m2406.4 688.1v1392.1l125.9-42.2v-1217.7l-114.5-120.2-10-10.5z"/>
					<path id="&lt;Path&gt;" class="s2" d="m2056.3 686.8v1393.4h350.1v-1393.4z"/>
					<path id="&lt;Path&gt;" class="s3" d="m2295.2 1988.7h44.5v-1148h-44.5z"/>
					<path id="&lt;Path&gt;" class="s3" d="m2200.8 1988.7h46.3v-1148h-46.3z"/>
					<path id="&lt;Path&gt;" class="s3" d="m2108.1 1988.7h46.3v-1148h-46.3z"/>
					<path id="&lt;Path&gt;" class="s4" d="m2295.2 1988.7h14.8v-1148h-14.8z"/>
					<path id="&lt;Path&gt;" class="s4" d="m2200.8 1988.7h14.8v-1148h-14.8z"/>
					<path id="&lt;Path&gt;" class="s4" d="m2106.3 1988.7h14.8v-1148h-14.8z"/>
					<path id="&lt;Path&gt;" class="s5" d="m2056.3 2080.1v0.1h350.1l125.9-42.2v-141.6c-58.3-157.8-39.1-223.3-51.7-340.4-12.3-114.2 13.6-716-62.8-855.9q-4.2-7.7-8.7-13.3-0.7 1.4-1.3 2.8-0.7 1.7-1.4 3.3c-39.8 89.4-58 132-66.7 177.4-8.5 44.2-7.8 91-9.2 186-1.7 116.9-1.4 218.6-20.5 288.6-4 14.8-8.8 28.1-14.8 39.9-11.5 22.9-27.1 39.9-48.1 49.8q-3.5 1.7-7.2 3.1c-8.2 3.1-16.3 7.9-24.3 14.3q-7.5 5.9-14.8 13.7c-16.4 17.3-32 41-46.4 69.8-12.1 24.3-23.3 52.3-33.3 83q-6.9 21.1-13 43.9-0.9 3.5-1.8 7c-22.7 87.5-36.1 191.3-34.9 297 0.5 46-5.3 83-15.1 113.7z"/>
				</g>
				<g id="&lt;Group&gt;">
					<path id="&lt;Path&gt;" class="s1" d="m2181.5 1376.3v703.9l99.1-21.4v-615.7l-90.1-60.8-7.8-5.3z"/>
					<path id="&lt;Path&gt;" class="s0" d="m1906.2 1375.6v704.6h275.3v-704.6z"/>
					<path id="&lt;Path&gt;" class="s1" d="m2094.1 2033.9h35v-580.5h-35z"/>
					<path id="&lt;Path&gt;" class="s1" d="m2019.9 2033.9h36.4v-580.5h-36.4z"/>
					<path id="&lt;Path&gt;" class="s1" d="m1947 2033.9h36.4v-580.5h-36.4z"/>
					<path id="&lt;Path&gt;" class="s4" d="m2094.1 2033.9h11.7v-580.5h-11.7z"/>
					<path id="&lt;Path&gt;" class="s4" d="m2019.9 2033.9h11.6v-580.5h-11.6z"/>
					<path id="&lt;Path&gt;" class="s4" d="m1945.6 2033.9h11.6v-580.5h-11.6z"/>
					<path id="&lt;Path&gt;" class="s5" d="m1906.2 2080.1v0.1h275.3l99.1-21.4v-71.6c-45.9-79.7-30.8-112.9-40.7-172.1-9.7-57.7 10.7-362-49.4-432.8q-3.2-3.8-6.8-6.7-0.5 0.7-1 1.4-0.6 0.9-1.2 1.7c-31.2 45.2-45.6 66.8-52.4 89.7-6.6 22.4-6.1 46-7.2 94.1-1.4 59.1-1.1 110.5-16.1 145.9-3.1 7.4-7 14.2-11.7 20.1-9 11.6-21.3 20.2-37.8 25.2q-2.8 0.9-5.7 1.6c-6.4 1.6-12.8 4-19.1 7.2q-5.9 3-11.6 7c-12.9 8.7-25.2 20.7-36.5 35.3-9.5 12.3-18.3 26.4-26.2 41.9q-5.4 10.7-10.2 22.2-0.7 1.8-1.4 3.6c-17.9 44.2-28.4 96.7-27.5 150.1 0.4 23.3-4.1 42-11.9 57.5z"/>
				</g>
				<g id="&lt;Group&gt;">
					<path id="&lt;Path&gt;" class="s6" d="m2218.7 1039.1v1041.1h422.4v-1041.1z"/>
					<path id="&lt;Path&gt;" class="s3" d="m2250.7 1203.1h358.3v-65.2h-358.3z"/>
					<path id="&lt;Path&gt;" class="s3" d="m2250.7 1318.8h358.3v-65.2h-358.3z"/>
					<path id="&lt;Path&gt;" class="s3" d="m2250.7 1434.5h358.3v-65.2h-358.3z"/>
					<path id="&lt;Path&gt;" class="s3" d="m2250.7 1550.2h358.3v-65.2h-358.3z"/>
					<path id="&lt;Path&gt;" class="s3" d="m2250.7 1665.8h358.3v-65.2h-358.3z"/>
					<path id="&lt;Path&gt;" class="s3" d="m2250.7 1781.5h358.3v-65.2h-358.3z"/>
					<path id="&lt;Path&gt;" class="s3" d="m2250.7 1897.2h358.3v-65.2h-358.3z"/>
					<path id="&lt;Path&gt;" class="s1" d="m2641.1 1039.1v1041.1h113.6v-942.3l-110.3-96-2.8-2.4z"/>
					<path id="&lt;Path&gt;" class="s4" d="m2719.7 1295.7v14.7h70v-14.7z"/>
					<path id="&lt;Path&gt;" class="s4" d="m2719.7 1478.6v14.8h70v-14.8z"/>
					<path id="&lt;Path&gt;" class="s4" d="m2719.7 1661.6v14.7h70v-14.7z"/>
					<path id="&lt;Path&gt;" class="s4" d="m2719.7 1844.6v14.7h70v-14.7z"/>
					<path id="&lt;Path&gt;" class="s4" d="m2250.7 1150.5h358.3v-12.6h-358.3z"/>
					<path id="&lt;Path&gt;" class="s4" d="m2250.7 1266.2h358.3v-12.6h-358.3z"/>
					<path id="&lt;Path&gt;" class="s4" d="m2250.7 1381.9h358.3v-12.6h-358.3z"/>
					<path id="&lt;Path&gt;" class="s4" d="m2250.7 1497.6h358.3v-12.6h-358.3z"/>
					<path id="&lt;Path&gt;" class="s4" d="m2250.7 1613.3h358.3v-12.7h-358.3z"/>
					<path id="&lt;Path&gt;" class="s4" d="m2250.7 1728.9h358.3v-12.6h-358.3z"/>
					<path id="&lt;Path&gt;" class="s4" d="m2250.7 1844.6h358.3v-12.6h-358.3z"/>
					<path id="&lt;Path&gt;" class="s5" d="m2232.7 2080.2h408.4l113.6-31.6v-201.7c-4.5-12.5-9.3-24.5-14.4-35.5-47.9-102.8-32.3-144.6-42.3-219.8-9.9-74.3 11.7-472.7-53.6-549.7q-1.3-1.5-2.6-2.8-0.1 0.2-0.2 0.4-0.3 0.4-0.5 0.8c-25.8 46.8-40.3 73.8-48.7 97.6-1.5 4.3-2.8 8.5-3.9 12.6-4.3 15.9-6.1 31.6-7 52.6-0.6 14-0.9 30.3-1.2 50.5q-0.1 6.1-0.2 12.6-0.1 3.8-0.1 7.8c-0.3 15.4-0.5 30.3-0.8 44.8-0.3 17.6-0.8 34.5-1.7 50.5q-0.3 6.4-0.8 12.6c-1.3 19.1-3.4 36.7-6.7 52.6-4.1 19.9-10.2 36.9-19.2 50.5q-4.6 6.9-10.3 12.6c-8.5 8.5-19 14.8-31.8 18.8-16.2 4.9-32 16.6-46.7 33.8-11.7 13.6-22.8 30.7-32.8 50.4-2.1 4.1-4.1 8.3-6.1 12.7-7.4 16.1-14.2 33.7-20.1 52.5-5.1 16.1-9.6 33-13.3 50.5q-1.4 6.3-2.6 12.6c-3.3 17.1-5.9 34.7-7.7 52.6-1.7 16.6-2.8 33.5-3.1 50.5q-0.2 6.3-0.2 12.6 0 3.9 0.1 7.8c0.2 16.7-1.2 31.5-3.8 44.8-21.1 105.3-122.8 113.5-139.7 183z"/>
				</g>
				<g id="&lt;Group&gt;">
					<path id="&lt;Path&gt;" class="s4" d="m2974.7 1294.2h-71.3v14.7h71.3z"/>
					<path id="&lt;Path&gt;" class="s4" d="m2974.7 1477.2h-71.3v14.7h71.3z"/>
					<path id="&lt;Path&gt;" class="s4" d="m2974.7 1660.2h-71.3v14.7h71.3z"/>
					<g id="&lt;Group&gt;">
						<path id="&lt;Path&gt;" class="s1" d="m3047.5 1194.7v885.5l113.6-26.9v-774.5z"/>
						<path id="&lt;Path&gt;" class="s2" d="m2692.1 1196.8v883.4h355.4v-883.4z"/>
						<g id="&lt;Group&gt;" style="opacity: .3">
							<path id="&lt;Path&gt;" class="s1" d="m2913.5 1302v138.8h69.9v-138.8z"/>
							<path id="&lt;Path&gt;" class="s1" d="m2815.9 1302v138.8h71.4v-138.8z"/>
							<path id="&lt;Path&gt;" class="s1" d="m2719.7 1302v138.8h70v-138.8z"/>
							<path id="&lt;Path&gt;" class="s1" d="m2913.5 1485v138.8h69.9v-138.8z"/>
							<path id="&lt;Path&gt;" class="s1" d="m2815.9 1485v138.8h71.4v-138.8z"/>
							<path id="&lt;Path&gt;" class="s1" d="m2719.7 1485v138.8h70v-138.8z"/>
							<path id="&lt;Path&gt;" class="s1" d="m2913.5 1667.9v138.9h69.9v-138.9z"/>
							<path id="&lt;Path&gt;" class="s1" d="m2815.9 1667.9v138.9h71.4v-138.9z"/>
							<path id="&lt;Path&gt;" class="s1" d="m2719.7 1667.9v138.9h70v-138.9z"/>
							<path id="&lt;Path&gt;" class="s1" d="m2913.5 1850.9v138.8h69.9v-138.8z"/>
							<path id="&lt;Path&gt;" class="s1" d="m2815.9 1850.9v138.8h71.4v-138.8z"/>
							<path id="&lt;Path&gt;" class="s1" d="m2719.7 1850.9v138.8h70v-138.8z"/>
						</g>
						<path id="&lt;Path&gt;" class="s4" d="m2983.4 1302h-69.9v14.7h69.9z"/>
						<path id="&lt;Path&gt;" class="s4" d="m2983.4 1485h-69.9v14.7h69.9z"/>
						<path id="&lt;Path&gt;" class="s4" d="m2983.4 1667.9h-69.9v14.8h69.9z"/>
						<path id="&lt;Path&gt;" class="s4" d="m2983.4 1850.9h-69.9v14.7h69.9z"/>
						<path id="&lt;Path&gt;" class="s5" d="m2692.1 2065.5v14.7h355.4l113.6-26.9v-131c-7.6-28-16.8-55.2-27.7-77.7-41.7-86.2-28.1-121.3-36.9-184.4-8.7-63.1 10.7-405.2-49-463.4-55.9 97.5-52 93.2-53.9 197-1.1 55.5-1 104.6-10.2 141.1-8 31.6-23.1 53.7-52 62.2-6 1.8-12 4.6-17.9 8.5-18.8 12-36.5 33.9-51.5 62.3-19.7 37.4-34.8 86-41.8 138.9-1.9 14.4-3.3 29.2-3.9 44.1q-0.3 7.5-0.4 15-0.1 6.5 0 13.1 0 2.3 0 4.5c-0.3 37.7-11.1 63.7-26.2 83.7-6.5 8.5-13.7 15.8-21.2 22.5-30.2 26.8-65.5 43-76.4 75.8z"/>
					</g>
				</g>
			</g>
			<g id="&lt;Group&gt;">
				<g id="&lt;Group&gt;">
					<path id="&lt;Path&gt;" class="s7" d="m1692.6 1783.2c63.9-43.3 150.7-116.2 203.1-230.6 68.7-150 17.6-239.5 67.4-504.2 31.5-167.3 55.2-283.7 149.9-332.9 74.3-38.5 183.3-31 241.3 25 48.1 46.6 66.6 132.1 67 191.2 0.3 48.1-11.5 81.1 11.6 110.1 23.6 29.7 55.7 20.2 78.5 43 46.2 46.3-4.2 166.9-12.3 186.4-90.7 216.9-323 335.8-425 386.4-84.3 41.9-212.8 95.1-381.5 125.6z"/>
					<g id="&lt;Clip Group&gt;" clip-path="url(#cp1)">
						<g id="&lt;Group&gt;" style="opacity: .5;mix-blend-mode: soft-light">
							<g id="&lt;Group&gt;">
								<path id="&lt;Path&gt;" class="s2" d="m1622.6 1815.4l-1.3-6.1c179.8-37.2 410.8-121.1 490.3-309.5 29.2-69.3 34.9-145.1 42.8-249.9 6.3-83.8 3.2-143.7 0.5-196.6-3.5-69.2-6.3-123.8 13.8-199.3 20.5-76.5 58.5-149.8 113.1-217.7l4.9 3.9c-54.1 67.2-91.7 139.7-111.9 215.4-19.9 74.5-17.2 128.8-13.6 197.4 2.7 53.1 5.8 113.2-0.6 197.3-7.6 101.5-13.7 181.7-43.3 251.9-37.9 89.8-113.9 164.6-225.8 222.4-75.6 39-166.1 69.5-268.9 90.8z"/>
							</g>
							<g id="&lt;Group&gt;">
								<path id="&lt;Path&gt;" class="s2" d="m2162 1192.2l-2.9-1.9c-0.6-0.3-51.8-33.6-97.8-99.1-42.5-60.5-89.1-161.6-70.3-300.1l6.2 0.9c-18.6 136.4 27.4 236.1 69.2 295.6 39 55.6 81.7 87.5 93.1 95.5 69.2-142 164.4-222.8 232.4-265.7 74.2-46.8 133-59.8 133.6-59.9l1.3 6.1c-0.6 0.1-58.5 12.9-131.9 59.2-67.7 42.8-162.7 123.7-231.4 266.3z"/>
							</g>
							<g id="&lt;Group&gt;">
								<path id="&lt;Path&gt;" class="s2" d="m2137.8 1417.8l-1-2c-0.4-0.9-42.1-88.8-101.1-168.7-58.6-79.4-217.8-129.2-219.4-129.7l1.9-6c6.6 2.1 162.7 51 222.5 132 54.4 73.6 94.1 153.9 100.8 167.7 179.2-25.7 425.6-396.2 428.1-399.9l5.2 3.4c-0.6 0.9-63.5 95.9-147.9 192.4-113.7 129.9-210.2 200.8-286.9 210.5z"/>
							</g>
							<g id="&lt;Group&gt;">
								<path id="&lt;Path&gt;" class="s2" d="m1919.5 1708.6l4-4.8c55.7-68.9 62.1-149.5 18.9-239.7-32.3-67.6-81.8-115.4-82.3-115.8l4.3-4.5c0.5 0.4 50.8 49 83.7 117.6 42.6 89.1 37.1 172.4-15.9 241.3 21.3 0.3 95.4-0.1 190.5-17.1 103.9-18.6 254.8-61.2 383.6-158.9l250.4-190 3.8 5-250.4 189.9c-129.9 98.6-281.8 141.5-386.4 160.2-113.3 20.2-197.1 17.1-197.9 17z"/>
							</g>
						</g>
					</g>
				</g>
				<g id="&lt;Group&gt;">
					<path id="&lt;Path&gt;" class="s8" d="m1888.1 1840.1c119.7 22.4 275.4 33.9 433.7-6 40.4-10.2 289.9-73 281.6-183-3-38.8-35.4-50.7-40.2-102.4-5.8-61.3 36.1-83.9 74.6-152.1 23-40.7 90.2-159.7 26.8-243.8-38-50.2-120.8-85.7-189.4-82.1-100.6 5.1-150.7 93.1-232.9 243.4-72.8 133.3-66.9 170.3-121.1 265.4-40.1 70.5-108.9 165.2-233.1 260.6z"/>
					<g id="&lt;Clip Group&gt;" clip-path="url(#cp2)">
						<g id="&lt;Group&gt;" style="opacity: .5;mix-blend-mode: soft-light">
							<g id="&lt;Group&gt;">
								<path id="&lt;Path&gt;" class="s2" d="m1870.5 1843.8q-60 14.7-122.1 18.4c-126.8 7.4-254.9-18.7-380.7-77.6l2.6-5.7c124.9 58.5 251.9 84.5 377.7 77.1 450-26.5 694.7-488.1 759-629 36.5-79.9 49-173.3 37.3-277.8l6.2-0.7c11.8 105.6-0.9 200.2-37.8 281.1-53 116-147.1 283-295.1 419.5-107.5 99.3-223.8 164.5-347.1 194.7z"/>
							</g>
							<g id="&lt;Group&gt;">
								<path id="&lt;Path&gt;" class="s2" d="m2382.5 1454.8l-1.3-2.5c-1-1.9-103.9-192.8-22.2-368.2l5.7 2.7c-75.4 161.7 9 337.2 20.7 360 283.1-119.5 314.6-308.5 317.4-363.7q0.1-2.3 0.2-2.9l6.2 1.1q-0.1 0.5-0.2 2.1c-2.9 56.3-34.9 249.4-323.9 370.3z"/>
							</g>
							<g id="&lt;Group&gt;">
								<path id="&lt;Path&gt;" class="s2" d="m2509.7 1669.5c-66.5 16.3-164.3 21.2-292.7-22l-1.6-0.5-0.4-1.6c-0.5-1.6-42.5-161.2 8.5-358.6l51.4-198.9 6.1 1.6-51.5 198.9c-47.9 185.2-13.2 336.6-8.9 353.8 150.6 50.2 258.2 33.7 321.9 11 69.2-24.6 102.9-61.5 103.2-61.8l4.7 4.1c-1.4 1.6-35.2 38.5-105.8 63.6-10.4 3.7-22.1 7.3-34.9 10.4z"/>
							</g>
						</g>
					</g>
				</g>
			</g>
			<g id="&lt;Group&gt;">
				<g id="&lt;Group&gt;">
					<path id="&lt;Path&gt;" class="s1" d="m2239.8 2537.5c0 23-17.6 42.6-39.2 43.8l-1377.1 71.5c-25.3 1.3-45.8-17.9-45.8-42.9v-2043.1c0-25 20.5-44 45.8-42.5l18.4-0.9 1358.7 85c21.6 1.3 39.2 21 39.2 44.1z"/>
					<path id="&lt;Path&gt;" class="s9" d="m2266.9 2536.5c0 23.1-17.5 42.7-39.2 43.8l-1377.1 71.6c-25.3 1.3-45.8-17.9-45.8-42.9v-2043.1c0-25 20.5-44.1 45.8-42.5l1377.1 84c21.7 1.3 39.2 21.1 39.2 44.2z"/>
					<path id="&lt;Path&gt;" class="s10" d="m1207.9 715.5c-34.3 44-39.1 127.1 19.5 161.3 127.2 78.3 293.4 53.8 415.7-29.3 89.9-63 51.6-179.8 25.9-274.2l-270.9-16.5c-23.3 65.1-147.3 101.4-190.2 158.7z"/>
					<path id="&lt;Path&gt;" class="s2" d="m2202.1 2454.7c0 20.5-15.6 37.8-34.8 38.7l-1246.9 58.3c-22.1 1.1-40.1-15.9-40.1-37.9v-1748.8c0-22 18-38.9 40.1-37.8l1246.9 62.8c19.2 1 34.8 18.3 34.8 38.8z"/>
					<path id="&lt;Compound Path&gt;" fill-rule="evenodd" class="s11" d="m1877.5 833.8l-635.6-24.7-4.3-5.5 49.6-99.4c5.3-10.7 16.5-17.4 27.7-16.8l69.1 3.7c30.8 1.6 60.3-20.7 68.4-51.9l18.8-72.2c3.4-13.3 16-22.8 29.1-22l21.6 1.4c7.9 0.5 15.9-2.3 22.3-7.7 6.4-5.4 10.7-12.9 12-21.1 4.5-29.9 31.5-52.5 60.3-50.6 28.7 1.9 48.2 27.6 43.7 57.3-2.5 16.8 8.5 31.2 24.6 32.2l21.2 1.3c12.8 0.8 22 11.5 21.4 24.8l-3.3 72c-1.4 31.1 20.1 55.8 49.7 57.4l65.6 3.5c10.7 0.6 19 8.2 20.9 18.9zm-252.7-319.7c1.3-8.7-4.5-16.3-12.9-16.8-8.4-0.6-16.3 6.1-17.6 14.8-1.4 8.8 4.4 16.3 12.8 16.8 8.5 0.6 16.3-6.1 17.7-14.8z"/>
					<path id="&lt;Compound Path&gt;" fill-rule="evenodd" class="s1" d="m1881.7 839.2l-639.8-30.1 49.6-99.5c5.3-10.6 16.4-17.4 27.7-16.8l69 3.7c30.9 1.7 60.3-20.7 68.4-51.9l18.8-72.1c3.5-13.4 16-22.8 29.1-22l21.6 1.3c7.9 0.5 15.9-2.2 22.4-7.6 6.4-5.4 10.7-13 11.9-21.1 4.5-29.9 31.6-52.6 60.4-50.7 28.7 2 48.2 27.6 43.7 57.3-2.5 16.8 8.5 31.3 24.6 32.3l21.2 1.3c12.7 0.8 21.9 11.4 21.3 24.8l-3.2 71.9c-1.4 31.1 20 55.9 49.7 57.4l65.6 3.6c10.6 0.5 19 8.1 20.8 18.8zm-252.7-319.7c1.3-8.7-4.4-16.2-12.8-16.8-8.5-0.5-16.4 6.1-17.7 14.9-1.3 8.7 4.5 16.2 12.9 16.8 8.4 0.5 16.3-6.1 17.6-14.9z"/>
					<g id="&lt;Group&gt;">
						<g id="&lt;Group&gt;">
							<path id="&lt;Path&gt;" class="s9" d="m2112.6 1339.8c0 4.4-2.9 7.8-6.5 7.7l-487.5-10.9c-3.9-0.1-7.1-3.8-7.1-8.3v-98.4c0-4.5 3.2-8.1 7.1-8l487.5 15.1c3.6 0.2 6.5 3.8 6.5 8.1z"/>
							<path id="&lt;Path&gt;" class="s9" d="m2112.6 1448.9c0 4.4-2.9 7.9-6.5 7.8l-487.5-6.7c-3.9-0.1-7.1-3.8-7.1-8.3v-27.3c0-4.6 3.2-8.2 7.1-8.1l487.5 8.3c3.6 0.1 6.5 3.7 6.5 8z"/>
							<path id="&lt;Path&gt;" class="s9" d="m2112.6 1548.8c0 4.4-2.9 7.9-6.5 7.9l-487.5-2.9c-3.9 0-7.1-3.7-7.1-8.3v-27.3c0-4.5 3.2-8.2 7.1-8.1l487.5 4.5c3.6 0 6.5 3.6 6.5 7.9z"/>
							<path id="&lt;Path&gt;" class="s9" d="m2112.6 1648.8c0 4.3-2.9 7.9-6.5 7.9l-487.5 0.9c-3.9 0-7.1-3.7-7.1-8.2v-27.3c0-4.6 3.2-8.2 7.1-8.2l487.5 0.7c3.6 0 6.5 3.5 6.5 7.9z"/>
							<path id="&lt;Path&gt;" class="s9" d="m2112.6 1748.7c0 4.3-2.9 7.9-6.5 7.9l-487.5 4.8c-3.9 0-7.1-3.6-7.1-8.2v-27.3c0-4.5 3.2-8.2 7.1-8.2l487.5-3.2c3.6 0 6.5 3.5 6.5 7.9z"/>
						</g>
						<g id="&lt;Group&gt;">
							<path id="&lt;Path&gt;" class="s9" d="m1443.4 1767.2l-408.6 4.1c-15.3 0.1-27.8-13.6-27.8-30.8v-510.1c0-17.1 12.5-30.6 27.8-30.2l408.6 12.8c14.4 0.5 26 14.3 26 30.9v493c0 16.6-11.6 30.2-26 30.3z"/>
							<path id="&lt;Compound Path&gt;" fill-rule="evenodd" class="s9" d="m1034.8 1200.2l408.6 12.8c14.4 0.5 26 14.3 26 30.9v493c0 16.5-11.5 30.1-25.9 30.3q-0.1 0-0.1 0l-408.6 4.1c-15.3 0.1-27.8-13.6-27.8-30.8v-510.1c0-16.8 12-30.1 26.9-30.2q0.4 0 0.9 0zm-15.5 30.2v509.9c0 9.6 7 17.3 15.6 17.2l408.5-3.9c7.8-0.2 14-7.6 14-16.5v-493.1c0-9.3-6.5-17.1-14.4-17.3l-408.6-12.7h-0.5c-8.2 0-14.6 7.2-14.6 16.4z"/>
						</g>
						<g id="&lt;Group&gt;">
							<path id="&lt;Path&gt;" class="s9" d="m1278.1 2020.9l-261.3 5.6c-1.8 0-3.2-1.6-3.2-3.5v-38.8c0-2 1.4-3.6 3.2-3.6l261.3-4.7c1.7 0 3 1.5 3 3.4v38.1c0 1.9-1.3 3.5-3 3.5z"/>
							<path id="&lt;Path&gt;" class="s9" d="m1461.1 2108.1l-444.3 12.4c-1.8 0.1-3.2-1.5-3.2-3.4v-38.9c0-1.9 1.4-3.5 3.2-3.6l444.3-10.9c1.6-0.1 3 1.4 3 3.3v37.6c0 1.9-1.4 3.4-3 3.5z"/>
							<path id="&lt;Path&gt;" class="s9" d="m1461.1 2199.1l-444.3 15.5c-1.8 0-3.2-1.5-3.2-3.5v-38.8c0-2 1.4-3.6 3.2-3.6l444.3-14c1.6-0.1 3 1.4 3 3.3v37.6c0 1.9-1.4 3.5-3 3.5z"/>
							<path id="&lt;Path&gt;" class="s9" d="m1461.1 2290.1l-444.3 18.5c-1.8 0.1-3.2-1.4-3.2-3.4v-38.8c0-2 1.4-3.6 3.2-3.7l444.3-17c1.6 0 3 1.4 3 3.3v37.6c0 1.9-1.4 3.5-3 3.5z"/>
						</g>
						<g id="&lt;Group&gt;">
							<path id="&lt;Path&gt;" class="s9" d="m1991.6 2005.8l-377.2 8c-1.6 0-2.9-1.4-2.9-3.3v-37.2c0-1.8 1.3-3.4 2.9-3.4l377.2-6.7c1.5-0.1 2.8 1.4 2.8 3.2v36.1c0 1.8-1.3 3.3-2.8 3.3z"/>
							<path id="&lt;Path&gt;" class="s9" d="m2103.4 2090.1l-489 13.7c-1.6 0-2.9-1.4-2.9-3.3v-37.2c0-1.8 1.3-3.4 2.9-3.4l489-12.1c1.5 0 2.7 1.4 2.7 3.2v35.8c0 1.8-1.2 3.3-2.7 3.3z"/>
							<path id="&lt;Path&gt;" class="s9" d="m2103.4 2176.8l-489 17c-1.6 0-2.9-1.4-2.9-3.3v-37.2c0-1.8 1.3-3.4 2.9-3.4l489-15.4c1.5 0 2.7 1.4 2.7 3.2v35.7c0 1.8-1.2 3.3-2.7 3.4z"/>
							<path id="&lt;Path&gt;" class="s9" d="m2103.4 2263.5l-489 20.3c-1.6 0-2.9-1.4-2.9-3.3v-37.1c0-1.9 1.3-3.5 2.9-3.5l489-18.7c1.5-0.1 2.7 1.3 2.7 3.1v35.8c0 1.8-1.2 3.3-2.7 3.4z"/>
						</g>
					</g>
					<path id="&lt;Path&gt;" class="s12" d="m1843.7 721l-65.6-3.6c-19.7-1-35.7-12.3-43.9-28.8-60.8 12.7-124.9-0.6-188.9 12.2-44 9.8-39.2 78.2-88.1 83.1-70.1 9.5-139.5 10.2-208.2 10.8l-7.1 14.4 639.8 30.1-17.2-99.4c-1.8-10.7-10.2-18.3-20.8-18.8z"/>
				</g>
				<g id="&lt;Group&gt;">
					<g id="&lt;Group&gt;">
						<path id="&lt;Compound Path&gt;" fill-rule="evenodd" class="s1" d="m1559.7 1158.1c-63.6-2.5-122.9-19.3-167.1-47-44.8-28.1-69.3-64.3-69.3-102.3 0-38 24.5-73 69.3-98.6 44.2-25.4 103.5-38.9 167.1-38.1 64.4 0.9 125.7 16.4 172.4 44 48.1 28.3 74.9 65.9 74.9 105.7 0 39.7-26.8 75.9-74.9 101.6-46.7 25.1-108 37.3-172.4 34.7zm0-274.2c-125.5-1.8-225.4 54.3-225.4 125.2 0 70.8 99.9 132.3 225.4 137.2 128.4 5 235.2-50.9 235.2-124.9 0-73.9-106.8-135.6-235.2-137.5z"/>
					</g>
					<g id="&lt;Group&gt;">
						<path id="&lt;Compound Path&gt;" class="s1" d="m1449.3 975.9q-12.2-0.3-18.8 9-6.7 9.3-6.7 26.2 0 35.2 25.5 35.9 10.8 0.4 26.1-4.7v18.7q-12.6 5.1-28.1 4.6-22.2-0.7-33.9-15-11.7-14.3-11.7-40.2 0-16.4 5.7-28.6 5.8-12.2 16.6-18.5 10.8-6.3 25.3-6 14.9 0.3 30 8.1l-7 18q-5.8-2.9-11.6-5.2-5.8-2.2-11.4-2.3z"/>
						<path id="&lt;Compound Path&gt;" class="s1" d="m1544.6 1067.2l-24.9-84h-0.6q1.3 25.4 1.3 33.9v49.4l-19.5-0.7v-105.9l29.8 0.7 24.5 81.9h0.5l26.1-80.8 30.3 0.6v107.1l-20.8-0.7v-50.6q0-3.5 0.2-8.2 0.1-4.7 0.9-24.8h-0.6l-27 82.8z"/>
						<path id="&lt;Compound Path&gt;" fill-rule="evenodd" class="s1" d="m1664.8 1029.8v41.2l-22.5-0.7v-107.3l30.9 0.7q21.7 0.5 32.2 8.7 10.4 8.2 10.4 24.6 0 9.5-5.2 16.8-5.2 7.3-14.7 11.2 24.2 37.1 31.5 48l-25.2-0.8-25.4-42.1zm0-18.5l7.2 0.2q10.7 0.2 15.8-3.2 5.1-3.5 5.1-11.3 0-7.6-5.2-11-5.2-3.4-16.1-3.6l-6.8-0.2z"/>
					</g>
				</g>
			</g>
			<g id="&lt;Group&gt;">
				<g id="&lt;Group&gt;">
					<g id="&lt;Group&gt;">
						<g id="&lt;Group&gt;">
							<path id="&lt;Path&gt;" class="s13" d="m1263.2 2743.5c2.1 38.1-0.4 69.7-0.1 107 145.4-68.9 298.1-108.7 445.6-178.2-164.8-130.5-286.3-168-315.5-410-13.7-113.6-7.4-341.4-88.8-424.7-92.8-94.8-162.6-33.1-182-143.8-30.3-172.9-175-310.4-365-156.7-187.5 151.6 54.3 729 239.9 838.3 139.2 124.7 254.9 169 265.9 368.1z"/>
							<g id="&lt;Clip Group&gt;" clip-path="url(#cp3)">
								<g id="&lt;Group&gt;" style="opacity: .7;mix-blend-mode: soft-light">
									<g id="&lt;Group&gt;">
										<path id="&lt;Path&gt;" class="s14" d="m1489.3 2738.9l-2.9 1.9c-32.8-49.4-69.9-96.8-105.8-142.7l-13.6-17.4c-28.8-37-54-70.5-76.1-100.1-12.4-16.6-24.2-32.3-35.8-47.5-35.3-46.3-60-78.6-72.3-94.7l-8.2-10.6c-96.7-127.1-181.3-335.2-226.8-447.1-4.9-12.1-9.3-22.9-13.2-32.2-65.9-159.4-153.5-317.3-260.5-469.4l2.8-2c107.1 152.3 194.9 310.5 260.9 470.1 3.9 9.3 8.3 20.1 13.2 32.2 45.4 111.7 130 319.6 226.4 446.3l8.1 10.6c12.3 16.1 37.1 48.4 72.4 94.7 11.5 15.2 23.3 30.9 35.8 47.5 22.1 29.6 47.2 63.1 76 100l13.6 17.5c36 45.9 73.1 93.3 106 142.9z"/>
										<path id="&lt;Path&gt;" class="s14" d="m1308.7 2505.5l-2.9 1.9c-59.9-87-95.2-213.3-102.1-365.2-5.8-126.6 8.8-266.9 40.2-385l3.3 0.9c-60.7 228.8-67.4 560.3 61.5 747.4z"/>
										<path id="&lt;Path&gt;" class="s14" d="m958.4 1898.2l-3.5 0.5c-12.2-90.5-13.1-183.1-13.9-272.6-0.6-61.2-1.1-124.6-5.4-186.8l3.5-0.2c4.2 62.3 4.8 125.7 5.4 187 0.8 89.4 1.7 181.9 13.9 272.1z"/>
										<path id="&lt;Path&gt;" class="s14" d="m1076.9 2168.7c-89.2-90.4-249.5-170.9-343.2-172.4l0.1-3.5c94.4 1.5 255.9 82.5 345.6 173.4z"/>
									</g>
								</g>
							</g>
						</g>
						<g id="&lt;Group&gt;">
							<path id="&lt;Path&gt;" class="s15" d="m1123.4 2345.1c51 189.2 158.9 141 299.5 85.4-13.3 182-19.5 359.6-25.2 539.9-94.6 35.8-163 59.7-224.1-46.8-69.2-120.5-105.1-192.3-256.6-213.5-151.5-21.1-271.8-123.8-230.9-271.2 43-155.1-100.7-344.3 19.5-462.8 209.3-206.6 364.8 172.1 417.8 369z"/>
							<g id="&lt;Clip Group&gt;" clip-path="url(#cp4)">
								<g id="&lt;Group&gt;" style="opacity: .5;mix-blend-mode: soft-light">
									<g id="&lt;Group&gt;">
										<path id="&lt;Path&gt;" class="s14" d="m1370.2 2741.6c-152.8-62.7-278.4-119.1-387.9-226.5-104.7-102.7-160-217-184.7-382.1-12.8-85.6-31.6-145.5-58.9-227l3.3-1.1c27.3 81.7 46.2 141.7 59.1 227.5 24.5 164.4 79.5 278.1 183.7 380.2 109 106.9 234.2 163.3 386.7 225.8z"/>
										<path id="&lt;Path&gt;" class="s14" d="m1197.6 2991.2l-2.8-2.1c31.7-44.1 66.5-80.6 106.5-111.5 20.4-15.8 41.7-27 67.3-38.9l1.5 3.2c-25.4 11.8-46.5 22.8-66.7 38.4-39.7 30.7-74.3 67-105.8 110.9z"/>
										<path id="&lt;Path&gt;" class="s14" d="m1052.8 2576.6c-115.3-47.6-255.1-52-393.7-12.6l-0.9-3.4c139.3-39.6 279.9-35.1 395.9 12.8z"/>
										<path id="&lt;Path&gt;" class="s14" d="m845.7 2307.3l-3.4 0.6c-3.3-18.3 15.1-194.4 20.8-247.9 11.9-110.8 26.1-229.9 29.4-237.5l3.2 1.4c-2.7 6.3-16.1 114.6-29.1 236.5-11.8 110-23.5 232.7-20.9 246.9z"/>
									</g>
								</g>
							</g>
						</g>
					</g>
				</g>
			</g>
			<g id="&lt;Group&gt;">
				<path id="&lt;Path&gt;" class="s1" d="m3118.4 2417.7c-9 55.1-74.9 112.5-298.1 198.3-121.7 46.7-461.9 180.1-761.7 278.3-285.6 93.6-392.3 142.2-539.7 184.5-63.5 18.2-595.3 164.8-848.2-50.5-94-80-154.9-193.5-173.4-325.1 1.9-0.4 0.5-44.6 2.4-45 784.2-175.9 1396.1-252.1 1381.1-364.7-4.2-31.6-55.3-62-132.3-87.2l4.1-143c88.4 5.5 169.7 11.1 228.4 16.1 212.9 18.2 622.8 52.8 854.7 134 124.8 43.7 226.9 64.7 267.2 98.9 14.7 12.5 19.5 49.7 19.1 62.4-0.7 24.2-1.1 27.5-3.6 43z"/>
				<path id="&lt;Path&gt;" class="s9" d="m3115.1 2361.9c-9 55-71.5 116-294.5 202.2-121.5 47-461.4 181.2-760.9 280.1-285.3 94.2-391.9 143.1-539.2 185.7-63.4 18.4-594.7 166.3-847.4-47.8-94-79.6-154.9-192.6-173.4-323.9 787.6-176.7 1397.4-300.4 1382.3-413.1-4.1-31.5-55.2-61.6-132.1-86.6l4.1-142.7c88.3 5.3 169.5 10.6 228.2 15.4 212.6 17.6 622.1 50.8 853.8 131.2 239 82.8 288 144.7 279.1 199.5z"/>
				<g id="&lt;Group&gt;">
					<g id="&lt;Group&gt;">
						<path id="&lt;Path&gt;" class="s2" d="m759 2929.4c-8.3-0.5-15.9-6.1-18.3-14.5-2.9-10.4 3.2-21.1 13.7-23.9 39.7-10.6 79.3-21.4 117.9-32.1 10.7-2.9 21.9 3.2 25 13.6 3.2 10.5-2.9 21.4-13.6 24.3-38.8 10.6-78.6 21.4-118.5 32-2.1 0.5-4.2 0.7-6.2 0.6z"/>
					</g>
					<g id="&lt;Group&gt;">
						<path id="&lt;Compound Path&gt;" class="s2" d="m1160.8 2816.6c-8.6-0.4-16.4-5.8-19.2-14-3.5-10.5 2.5-21.7 13.4-25 95-28.4 189.9-57.9 290.1-90.1 11.2-3.6 23.6 2.1 27.6 12.6 4 10.6-1.9 22.2-13.1 25.8-100.8 32.1-196.2 61.5-291.7 89.9-2.4 0.7-4.8 0.9-7.1 0.8zm589.6-187.9c-8.8-0.3-17.1-5.4-20.4-13.5-4.4-10.6 1.4-22.4 12.9-26.3q21.5-7.4 43.4-14.8c85.8-29.3 164.1-61.3 254.1-103.6 11.2-5.3 25.3-1.4 31.3 8.8 6.1 10.2 1.8 22.8-9.5 28.1-91.9 43-172 75.5-259.7 105.3q-22 7.4-43.6 14.7c-2.8 1-5.7 1.4-8.5 1.3z"/>
					</g>
					<g id="&lt;Group&gt;">
						<path id="&lt;Path&gt;" class="s2" d="m2349.5 2365.4c-8.5-0.1-16.8-4.3-21-11.4-6.1-10.4-1.6-23 10.1-28.4 45.5-20.7 89.4-39.4 134.1-57.2 12.2-4.8 26.6-0.1 32.3 10.6 5.6 10.6 0.2 23.2-12 28-44.1 17.4-87.3 35.7-132.2 56.1-3.6 1.6-7.5 2.4-11.3 2.3z"/>
					</g>
				</g>
			</g>
			<g id="&lt;Group&gt;">
				<path id="&lt;Path&gt;" class="s16" d="m2976.6 2241.2l0.4 94.1c0.1 8.7-6 16.5-14 18l-970.8 173.9-142.2 106.6-215.9-248z"/>
				<path id="&lt;Path&gt;" class="s17" d="m2249.8 2427.3l1.9 89.6c0.2 7.5-5.1 14.3-12.4 16.2l-248.6 62.2 3.3-148.2 239.3-33.8c8.8-1.3 16.3 5.2 16.5 14z"/>
				<g id="&lt;Group&gt;">
					<path id="&lt;Path&gt;" class="s18" d="m2886.1 2291q1.1-0.1 2.2 0l11.4-0.9v5.4c11.1 8.5 18.9 28.3 19.1 51.9 0.1 24.5-8 46.1-19.7 55.8v4.3l-12.2 1c-17.9 1.5-32.6-23.7-32.8-56.2-0.3-32.6 14.1-60 32-61.3z"/>
					<path id="&lt;Path&gt;" class="s19" d="m2867.8 2351.3c0.2 32.4 14.9 57.6 32.7 56.1 17.8-1.4 32-28.7 31.8-61-0.2-32.3-14.7-57.6-32.6-56.3-17.8 1.2-32.2 28.6-31.9 61.2z"/>
					<path id="&lt;Path&gt;" class="s9" d="m2886.5 2349.8c0.1 18.3 8.4 32.4 18.4 31.6 9.9-0.8 17.9-16.1 17.8-34.3-0.1-18.2-8.3-32.3-18.3-31.6-10 0.7-18 16.1-17.9 34.3z"/>
					<path id="&lt;Path&gt;" class="s20" d="m2886.5 2349.8c0.1 17 7.1 30.1 15.6 29.5 8.5-0.7 15.3-14.9 15.2-31.8-0.1-16.9-7.1-30.1-15.6-29.4-8.5 0.6-15.3 14.8-15.2 31.7z"/>
				</g>
				<g id="&lt;Group&gt;">
					<path id="&lt;Path&gt;" class="s21" d="m2809 2303.1q1.3-0.1 2.5 0l12.7-1.1v6c12.3 9.4 21 31.2 21.2 57.2 0.2 27-8.8 50.9-21.7 61.6l-0.1 4.8-13.5 1.1c-19.8 1.6-36.3-26.1-36.6-62-0.3-35.9 15.6-66.2 35.5-67.6z"/>
					<path id="&lt;Path&gt;" class="s22" d="m2788.7 2369.6c0.4 35.8 16.7 63.5 36.5 61.8 19.8-1.6 35.5-31.7 35.3-67.3-0.3-35.7-16.5-63.5-36.3-62.1-19.9 1.4-35.8 31.7-35.5 67.6z"/>
					<path id="&lt;Path&gt;" class="s9" d="m2809.6 2368c0.2 20.1 9.3 35.6 20.4 34.7 11.1-0.8 20-17.8 19.8-37.8-0.1-20.1-9.2-35.7-20.3-34.8-11.2 0.8-20.1 17.8-19.9 37.9z"/>
					<path id="&lt;Path&gt;" class="s23" d="m2809.6 2368c0.1 18.6 7.9 33.1 17.4 32.4 9.4-0.8 16.9-16.4 16.8-35-0.2-18.7-7.9-33.2-17.4-32.5-9.4 0.7-17 16.4-16.8 35.1z"/>
				</g>
				<g id="&lt;Group&gt;">
					<path id="&lt;Path&gt;" class="s24" d="m2725.4 2309q1.4-0.1 2.7-0.1l14.1-1.1v6.6c13.8 10.3 23.4 34.3 23.7 62.9 0.3 29.7-9.6 56-24 67.7v5.3l-15 1.3c-22 1.8-40.4-28.6-40.8-68.1-0.5-39.6 17.2-73 39.3-74.5z"/>
					<path id="&lt;Path&gt;" class="s25" d="m2703 2382.2c0.4 39.4 18.7 69.8 40.7 68 21.8-1.9 39.2-35 38.9-74.2-0.4-39.2-18.4-69.8-40.4-68.2-22 1.5-39.6 34.9-39.2 74.4z"/>
					<path id="&lt;Path&gt;" class="s9" d="m2726.2 2380.4c0.2 22.1 10.4 39.2 22.7 38.2 12.3-1 22.1-19.6 21.9-41.7-0.2-22-10.3-39.2-22.7-38.3-12.3 0.9-22.2 19.6-21.9 41.8z"/>
					<path id="&lt;Path&gt;" class="s26" d="m2726.2 2380.4c0.2 20.5 8.9 36.5 19.3 35.6 10.5-0.8 18.8-18.1 18.6-38.5-0.2-20.5-8.8-36.5-19.3-35.7-10.5 0.7-18.9 18-18.6 38.6z"/>
				</g>
				<g id="&lt;Group&gt;">
					<path id="&lt;Path&gt;" class="s27" d="m2322.3 2376.1q1.9-0.1 3.7 0l19.5-1.7v8.7c19 13.6 32.6 45.2 33.3 83 0.8 39.2-12.6 73.9-32.2 89.7v6.9l-20.5 1.9c-30.4 2.8-56-37.2-57.1-89.5-1.1-52.3 22.8-96.7 53.3-99z"/>
					<path id="&lt;Path&gt;" class="s28" d="m2292.3 2473.2c1.1 52.2 26.6 92.1 56.8 89.3 30-2.7 53.5-46.7 52.6-98.3-1-51.8-26.1-92-56.2-89.8-30.4 2.2-54.3 46.5-53.2 98.8z"/>
					<path id="&lt;Path&gt;" class="s9" d="m2324.2 2470.6c0.6 29.2 14.8 51.7 31.8 50.2 16.9-1.5 30.1-26.2 29.5-55.3-0.5-29.1-14.6-51.7-31.6-50.3-16.9 1.3-30.3 26.1-29.7 55.4z"/>
					<path id="&lt;Path&gt;" class="s29" d="m2324.2 2470.6c0.5 27.1 12.7 48.1 27 46.8 14.4-1.3 25.6-24.1 25.1-51.1-0.5-27.1-12.5-48.1-26.9-47-14.5 1.1-25.7 24.1-25.2 51.3z"/>
				</g>
				<g id="&lt;Group&gt;">
					<path id="&lt;Path&gt;" class="s30" d="m1943.5 2419.7c1.8-0.2 3.4-0.2 5.1-0.1l26.6-2.3 0.2 11.5c26.1 17.7 45 59.3 46.3 109.1 1.4 51.6-16.5 97.5-43.1 118.5l0.2 9.1-28.1 2.8c-41.5 4.1-77.1-48.4-79.2-117.4-2.1-69.2 30.3-128.1 72-131.2z"/>
					<path id="&lt;Path&gt;" class="s31" d="m1903.5 2548.1c2 68.8 37.4 121.2 78.6 117.1 41-4 72.5-62.1 70.7-130-1.8-68.1-36.4-121-77.6-117.9-41.5 3.1-73.8 61.8-71.7 130.8z"/>
					<path id="&lt;Path&gt;" class="s9" d="m1947.1 2544.3c1.1 38.6 20.8 68 44 65.9 23-2.2 40.8-34.9 39.8-73.1-1.1-38.3-20.6-68-43.7-66.1-23.2 1.9-41.2 34.7-40.1 73.3z"/>
					<path id="&lt;Path&gt;" class="s32" d="m1947.1 2544.3c1 35.8 17.9 63.3 37.5 61.5 19.6-1.8 34.6-32.1 33.7-67.6-1-35.6-17.6-63.3-37.3-61.7-19.7 1.6-34.9 32-33.9 67.8z"/>
				</g>
				<path id="&lt;Path&gt;" class="s33" d="m3027.4 1732.9c11.7 1.9 20.2 12.9 20.3 25.9l1.3 479.6c0.1 13.8-9.7 25.8-22.4 27.5l-888.6 114.8-19.3-800.9z"/>
				<path id="&lt;Path&gt;" class="s34" d="m1533 1599.9l585.7-20.1 19.3 800.9-606.8 44.4-30.3-792c-0.7-17.9 13.5-32.6 32.1-33.2z"/>
				<path id="&lt;Path&gt;" class="s35" d="m2334.9 2171c118-62.7 228.6 16.7 332-70.5 89.2-75.2 59.2-179.5 129.5-306.4 16-28.9 37.4-59.2 66.7-88.9l164.3 27.7c11.7 1.9 20.2 12.9 20.3 25.9l1.3 479.6c0.1 13.8-9.7 25.8-22.4 27.5l-839 108.4c39.1-117.7 94.1-175 147.3-203.3z"/>
				<path id="&lt;Path&gt;" class="s0" d="m1203.2 2161.5l37.7-103.7-3.8-85.9-45.1-7.7c-4.4-0.8-7.4-4.8-6.6-8.8 5.2-25.5 24.8-110.4 61.8-139 26.1-20.2 545.2-34.4 545.2-34.4l252.2 11.3c19.8 0.9 35.7 16.1 36.2 34.7l14.1 512.9c0.4 13.1-10.3 24.3-24.6 25.5l-168.6 15.4-32.3 31.3c0 0-473.8 39.9-664.2 10.2-9.9-1.5-17.5-9.3-18-18.4l-13.8-220.4c-2-32.3 29.8-23 29.8-23z"/>
				<path id="&lt;Path&gt;" class="s36" d="m1723.9 2185.7c0 0-4-222.4-13.1-315-4.5-45.1 18.6-71.9 43.5-87.6 23.9-0.8 38.1-1.1 38.1-1.1l252.2 11.3c19.8 0.9 35.7 16.1 36.2 34.7l14.1 512.9c0.4 13.1-10.3 24.3-24.6 25.5l-168.6 15.4-32.3 31.3c0 0-78.4 6.6-184.1 12.5l-8.1-185.9z"/>
				<path id="&lt;Path&gt;" class="s1" d="m1196.1 2462l18.3-6.2-2.2-34.9c-0.6-9.4 7.2-17.1 17.5-17.2l588.3-6.3c14.2-0.2 26.2 10.3 26.7 23.4l7.7 208.2c0.5 11.3-9.5 20.5-22 20.1l-625.1-16.5c-11.7-0.3-21.5-9-22.2-19.7l-7.7-121.4c-0.8-13.2 7.5-25 20.7-29.5z"/>
				<path id="&lt;Path&gt;" class="s37" d="m1256.5 2281.2l350-4.1c11.8-0.1 21.6 9 21.2 19.9l-7.7 252.2c-0.4 12.6-11.5 22.3-25.3 22l-297.8-6.5c-13-0.3-24.1-9.5-25.7-21.3l-33.6-241.8c-1.6-10.9 7.2-20.2 18.9-20.4z"/>
				<g id="&lt;Group&gt;" style="opacity: .3;mix-blend-mode: multiply">
					<path id="&lt;Path&gt;" class="s1" d="m1196.1 2462l18.3-6.2-2.2-34.9c-0.4-7.4 4.3-13.8 11.4-16.2l44.8 153.4c5.3 18.1 23.2 31.2 43.5 31.8l273.1 7.2c19.6 0.5 36.9-10.8 42.5-27.8l56.6-170.5 133.9-1.4c14.2-0.2 26.2 10.3 26.7 23.4l7.7 208.2c0.5 11.3-9.5 20.5-22 20.1l-625.1-16.5c-11.7-0.3-21.5-9-22.2-19.7l-7.7-121.4c-0.8-13.2 7.5-25 20.7-29.5z"/>
				</g>
				<path id="&lt;Path&gt;" class="s38" d="m1662.8 2582.4l65.3 2.4c40.6 1.4 74.3-26.7 76.2-63.8l1.5-29.1-131 1.3c-8.8 0.1-15.6 6.7-15.3 14.7z"/>
				<path id="&lt;Path&gt;" class="s39" d="m1239.7 2509.8l14.2 64.5c0 0-68.3-1.5-71.5-80.6l42.7 3.9c7.1 0.6 13.2 5.6 14.6 12.2z"/>
				<path id="&lt;Path&gt;" class="s40" d="m1237.1 1971.9l479.9-6.9 26.7-4.8c13.9-2.4 27.2 7.5 27.7 20.8l5.8 148.5c0.5 11.1-4.9 21.7-14.3 28.4l-26.5 18.9c-8.1 5.8-18.1 8.9-28.5 8.8l-498.6-1.9-6.1-22.2z"/>
				<g id="&lt;Group&gt;">
					<path id="&lt;Path&gt;" class="s1" d="m1532.4 1915.7l41-0.6c6.2-0.1 11.4 4.5 11.7 10.3l0.7 16.1c0.3 5.8-4.5 10.6-10.7 10.7l-40.9 0.6c-6.2 0.1-11.4-4.6-11.7-10.4l-0.8-16c-0.3-5.9 4.5-10.6 10.7-10.7z"/>
					<path id="&lt;Path&gt;" class="s1" d="m1292.5 1919.2l40.8-0.6c6.2-0.1 11.4 4.6 11.8 10.4l0.9 16c0.3 5.8-4.5 10.6-10.6 10.7l-40.8 0.6c-6.1 0.1-11.4-4.6-11.8-10.4l-0.9-16c-0.3-5.8 4.4-10.6 10.6-10.7z"/>
				</g>
				<path id="&lt;Path&gt;" class="s41" d="m1392.5 2075.3c121.1-45.7 240 7.6 290.7-53.1 13.8-16.4 18.8-36.8 19.3-57l14.5-0.2 26.7-4.8c13.9-2.4 27.2 7.5 27.7 20.8l5.8 148.5c0.5 11.1-4.9 21.7-14.3 28.4l-26.5 18.9c-8.1 5.8-18.1 8.9-28.5 8.8l-451.8-1.8c47.2-64.6 97.4-93.8 136.4-108.5z"/>
				<g id="&lt;Group&gt;">
					<path id="&lt;Compound Path&gt;" fill-rule="evenodd" class="s42" d="m1208.1 2185.1l-6.4-23.6 35.7-187.7h1.5l476.2-10.7 26.3-4.8q2.4-0.4 4.8-0.4c13.2 0 24.5 9.9 25.2 22l8.2 145.6c0.7 11.6-4.8 22.8-14.7 29.9l-26.3 18.8c-8.4 6-18.9 9.3-29.6 9.3zm-2.6-23.7l5.4 20.1 498.1-1.5c10-0.1 19.7-3.1 27.5-8.7l26.3-18.9c8.9-6.3 13.8-16.2 13.2-26.6l-8.2-145.6c-0.6-10.2-10.3-18.6-21.6-18.6q-2.1 0-4.1 0.4l-26.6 4.8-475 10.7z"/>
				</g>
			</g>
			<g id="&lt;Group&gt;">
				<g id="&lt;Group&gt;">
					<path id="&lt;Path&gt;" class="s43" d="m2553.9 1964.3l-118.4-204.3c-1.5-2.5-4.4-3.8-7.2-3.1l-165.7 38.7c-4.4 1-6.5 6.1-4.1 10l137.4 219.7c1.6 2.6 4.9 3.8 7.9 2.7l145.6-52.6z"/>
					<path id="&lt;Path&gt;" class="s2" d="m2524.8 1941.1l-95.9-165.4c-1.2-2.1-3.5-3.1-5.8-2.5l-134.2 31.3c-3.6 0.8-5.3 5-3.3 8.1l111.2 177.9c1.4 2.1 4 3.1 6.4 2.2l117.9-42.6z"/>
					<path id="&lt;Path&gt;" class="s44" d="m2400.6 1777.6l-7.6-13.3c-1.1-1.8-3.2-2.8-5.3-2.3l-69 15.5c-3.2 0.7-4.8 4.4-3.1 7.2l8.5 14.4c1.1 1.9 3.2 2.8 5.3 2.3l68.2-16.7c3.1-0.8 4.6-4.3 3-7.1z"/>
					<g id="&lt;Group&gt;">
						<path id="&lt;Path&gt;" class="s9" d="m2310.2 1834.5q0.2-0.1 0.3-0.1l121.5-28.7c1.5-0.3 2.5-1.8 2.1-3.3-0.3-1.5-1.9-2.4-3.3-2.1l-121.5 28.7c-1.5 0.3-2.5 1.8-2.1 3.3 0.3 1.4 1.6 2.3 3 2.2z"/>
						<path id="&lt;Path&gt;" class="s9" d="m2317.8 1846.2q0.2 0 0.4 0l120.7-29.8c1.5-0.4 2.5-1.9 2.1-3.4-0.4-1.5-1.9-2.4-3.4-2.1l-120.7 29.8c-1.6 0.4-2.5 1.9-2.1 3.4 0.3 1.4 1.7 2.3 3 2.1z"/>
						<path id="&lt;Path&gt;" class="s9" d="m2381.5 1859.3q0.2 0 0.5 0l65.6-18.1c1.5-0.5 2.4-2 2-3.5-0.4-1.5-2-2.4-3.5-1.9l-65.6 18.1c-1.5 0.4-2.4 1.9-2 3.4 0.4 1.4 1.7 2.2 3 2z"/>
						<path id="&lt;Path&gt;" class="s9" d="m2395.6 1883.1q0.2-0.1 0.4-0.1l65.7-18.1c1.5-0.4 2.4-2 1.9-3.5-0.4-1.5-1.9-2.3-3.4-1.9l-65.6 18.1c-1.5 0.4-2.4 1.9-2 3.4 0.4 1.4 1.7 2.2 3 2.1z"/>
						<path id="&lt;Path&gt;" class="s9" d="m2410.4 1906.7q0.2 0 0.4-0.1l65.7-18.1c1.5-0.4 2.4-1.9 1.9-3.4-0.4-1.5-1.9-2.4-3.4-2l-65.6 18.1c-1.5 0.4-2.4 2-2 3.5 0.4 1.3 1.7 2.2 3 2z"/>
					</g>
				</g>
				<path id="&lt;Path&gt;" class="s45" d="m2353.7 1932.9c0 0-12.8-23.8-20.4-23.4-7.6 0.5-13.1-5.3-13.1-5.3 0 0-13.9-32-17.1-27.2-3.1 4.8-8.9 66.1 29.5 80.6 38.4 14.6 21.1-24.7 21.1-24.7z"/>
				<path id="&lt;Path&gt;" class="s46" d="m2995.6 1733.6c7.9 3 129.2 51.3 154.1 177.8 2 10.2 21.5 118.9-52.3 195.7-82.6 86.2-241.8 84-305 12-14.7-16.8-22.5-35.4-26.9-51l16.7-44.2c20.3-24.6 48-30.4 62.7-34 36.4-9 63.9 7.2 84.8-10.3 11.5-9.7 13.8-23.7 15.9-36.2 7-42.6-17.1-68.8-18.8-95-1.3-19.6-8.2-62.6 17.4-90.6 16.2-17.8 38.7-22.6 51.4-24.2z"/>
				<path id="&lt;Path&gt;" class="s47" d="m3042.8 3143.8c1.4-7.7 26.6-14.8 39-4.4 6.2 5.2 10.5 15.7 6.9 20.5-1.3 1.7 4 4.7-1.1 4.8-16.9 0.2-46.2-13.1-44.8-20.9z"/>
				<path id="&lt;Path&gt;" class="s48" d="m3069.2 3146.7l25.9-3.7c-12-14.4-9.8-60.4-9.8-60.4l-27.5 6.2c0 0 3.1 12.6 8.4 31.2 1.9 6.4 2.7 16.3 3 26.7z"/>
				<path id="&lt;Path&gt;" class="s49" d="m3066.9 3143.5c0 0 31.1-7.2 34.5-1 3.4 6.2 6 22.7-13.8 22.2-19.7-0.5-22.5-16-20.7-21.2z"/>
				<path id="&lt;Path&gt;" class="s50" d="m2687.8 3173.1c2.5-7.6 28.4-11 39.3 1.1 5.4 6 8.1 16.9 3.9 21.1-1.5 1.6 3.3 5.3-1.7 4.7-16.8-2.2-44-19.5-41.5-26.9z"/>
				<path id="&lt;Path&gt;" class="s51" d="m2713.5 3179.6h26.2c-9.9-16-1.3-61.2-1.3-61.2l-28.1 2.2c0 0 1.4 13 4.1 32.1 0.9 6.6 0.3 16.6-0.9 26.9z"/>
				<path id="&lt;Path&gt;" class="s52" d="m2645.8 2191.5c-12.1 39.9-29.4 104.4-40.5 185.4-31.7 230.8 35.7 238.2 23.1 494-4 81.7 70.8 270 77.4 274.2 3.2 0.3 6.6 0.5 10.3 0.4 6.5-0.2 15.7-1.2 26.3-4.4 11.9-2.1 54.6-117.7 44.7-186.5-7-48.7-5-100.9-0.9-205.4 0.6-16.9 43.9-329.3 43.9-329.3 13.2 115.6 28.4 213.9 41.5 290.1 42.2 244.7 179.4 392.8 186.6 395.2 1.4 0.6 14.3 5.3 24.8-1.7 4.7-3.1 6.3-7 6.3-7 3.6-2.9-1.1-244.4-43-426.1-60.7-263.8-34.3-325.5-53.5-443.3-16.7-102-347-35.6-347-35.6z"/>
				<path id="&lt;Path&gt;" class="s53" d="m2891.2 1713.1c-40.3-1.2-133-15.5-184.1 30.5-0.9 0.8 9.6 6.4 4.4 12.4-4.8 5.6-21.2 25.2-36 51.7-10.8 19.2-20.5 41.6-30.3 75-17.3 58.8-22.3 108.9-24 130.7-9.3 122.8 0 179.4 8.4 217.9 36.4 18.7 130.4 52.3 242.3 35.6 51.2-7.6 92.1-24.6 120.9-39.8-29.1-88-6.3-135 4.5-178.4 15.3-61.9 15.6-57.2 28.2-106.3 20.8-81.1 24.2-164 9.9-180.9-38.6-45.7-108.1-47.4-144.2-48.4z"/>
				<path id="&lt;Path&gt;" class="s54" d="m2711.7 3176.1c0 0 31.9-2.8 34.3 3.8 2.5 6.6 2.8 23.4-16.7 20.1-19.5-3.3-20.1-19-17.6-23.9z"/>
				<g id="&lt;Group&gt;">
					<path id="&lt;Path&gt;" class="s55" d="m2776.6 1668.9c-12.5-21.1-5.8-47.3-4.6-52.5 5.3-21.9 7.2-25.2 11.3-29.8l5.7-6.1c0 0 0.4-0.2 0.7-0.5 4-2.7 18.9-7.2 22.1-7.3 10.3-0.6 31.1 36.2 43.1 92.9q1.4 3 2.9 6.1c5.9 12.9 11 25.6 15.4 37.9 69.3 5.8 78.9 14 79.2 18.7 0.7 9.9-38.8 21.3-68.6 25.6-64.7 9.5-131.3-7.6-131-19.6 0.1-5.3 13-12.2 67.9-19.3q-1.9-13.7-3.8-27.3c-4.5-1-31.1-3.2-40.3-18.8z"/>
					<path id="&lt;Path&gt;" class="s56" d="m2764.6 1570c4.7 17.3 17.8 33.6 22.8 35.5 0.6 0.2 4.3 1.8 8.1 5.2 0.5 0.4 1 1 1.5 1.8 6.7 9.9-7.2 27.3-2.6 31.3 3.4 2.9 13.9-5 16.1-2.3 2.1 2.6-6.1 11.1-3.7 14.2 1.9 2.3 7.3-1.7 12.1 1.3 2.5 1.5 2.3 3.2 6 8.7 2 3.2 4.6 6.5 6.4 8.3 8.7 8.5 26.6 7.7 28.8 2.8 0.6-1.4-0.4-2.1-0.5-6.2 0 0-0.1-3.7 1.3-8.5 1.9-6.7 9.3-13.2 16.2-21.6 12.8-15.6 14.5-26.4 14.9-30.1 0.1-1.3 0.2-2.2 0.2-2.9 0.7-13.9-4.3-32.6-13.1-42.6-14.7-16.8-34-1.8-56.8-16.2-26.4-16.7-22.2-50.1-34.2-50.5-13.3-0.4-32.1 39.8-23.5 71.8z"/>
					<path id="&lt;Path&gt;" class="s57" d="m2799.6 1638.1c2.7-7 11.6-3.5 13.6 4.1 2.1 7.5-3.1 17.3-10.6 17.7-7.5 0.4-6.7-12.4-3-21.8z"/>
				</g>
				<path id="&lt;Path&gt;" class="s58" d="m2979.9 2171.1c-0.4 0-0.8-0.3-0.8-0.7-4.8-43.3 4.1-74.7 12-102.4 1.9-6.8 3.8-13.1 5.3-19.5 8.7-35.2 12.6-48.7 16.6-63.1 2.6-9.3 5.3-19 9.5-35.1 0.2-0.5 0.6-0.8 1.1-0.6 0.5 0.1 0.7 0.6 0.6 1-4.2 16.2-6.9 25.8-9.5 35.2-4.1 14.3-7.9 27.9-16.6 63-1.6 6.4-3.4 12.8-5.3 19.6-7.9 27.5-16.8 58.7-12 101.7 0.1 0.5-0.3 0.9-0.8 0.9q0 0-0.1 0z"/>
				<path id="&lt;Path&gt;" class="s56" d="m2799.6 1624.6l-6.4 15.4c0 0-4.5 14.9-14.9 11.6-7.2-2.3-9.1-8.1-9.2-11.4-1.6 4.5-3.2 11.3-3.2 20.1 0 8.6 0 17.7 6.7 24.7 0.4 0.4 7.7 7.8 17.5 7.5 0 0 3.9-0.2 18.5-7 0 0-20-7.7-21.1-10.5-2.8-7.7 7-14.9 10.9-33.2 1.4-7.1 1.5-13.1 1.2-17.2z"/>
				<path id="&lt;Path&gt;" class="s59" d="m2354.1 1927.9c-14.6 10.2-22.4 24.1-26.4 32.9 10.7 25.2 35 71.9 85.3 106.4 82.6 56.4 203.6 58.3 287.9-6.1 100.7-76.9 117.5-224.5 75.2-287.6-4.8-7.3-20.9-31.2-45.7-34-15.7-1.7-37.1 4.8-70.8 44.3-70.3 82.3-45.5 133.7-87.1 157.8-62.3 36.2-154.8-58.2-218.4-13.7z"/>
				<path id="&lt;Path&gt;" class="s58" d="m2637.6 2095.7c-0.4 0-0.7-0.3-0.8-0.7-0.1-0.5 0.2-0.9 0.6-1 1-0.3 98.8-22.8 142.8-144.2 0.1-0.4 0.6-0.7 1.1-0.5 0.4 0.1 0.7 0.6 0.5 1.1-23.2 63.9-61.1 100-88.8 119-30 20.6-54.9 26.2-55.2 26.3q-0.1 0-0.2 0z"/>
			</g>
		</g>
	</g>
</svg>